<?xml version="1.0" encoding="iso-8859-1"?>
<!-- Generator: Adobe Illustrator 19.0.0, SVG Export Plug-In . SVG Version: 6.00 Build 0)  -->
<svg version="1.1" id="Capa_1" xmlns="http://www.w3.org/2000/svg" xmlns:xlink="http://www.w3.org/1999/xlink" x="0px" y="0px" width="2vw"
	 viewBox="0 0 378 378" style="enable-background:new 0 0 378 378;" xml:space="preserve">
<g>
	<g>
		<rect x="119.5" y="225" width="138" height="110"/>
	</g>
</g>
<g>
	<g>
		<rect x="220.5" y="43" width="37" height="110"/>
	</g>
</g>
<g>
	<g>
		<path d="M60.5,0v378h257V0H60.5z M200.5,33c0-5.5,4.5-10,10-10h57c5.5,0,10,4.5,10,10v130c0,5.5-4.5,10-10,10h-57
			c-5.5,0-10-4.5-10-10V33z M99.5,33c0-5.5,4.5-10,10-10h57c5.5,0,10,4.5,10,10v130c0,5.5-4.5,10-10,10h-57c-5.5,0-10-4.5-10-10V33z
			 M278.5,345c0,5.5-4.5,10-10,10h-159c-5.5,0-10-4.5-10-10V215c0-5.5,4.5-10,10-10h159c5.5,0,10,4.5,10,10V345z M307.5,199.4
			c0,5.5-4.5,10-10,10s-10-4.5-10-10V163c0-5.5,4.5-10,10-10s10,4.5,10,10V199.4z"/>
	</g>
</g>
<g>
	<g>
		<rect x="119.5" y="43" width="37" height="110"/>
	</g>
</g>
<g>
</g>
<g>
</g>
<g>
</g>
<g>
</g>
<g>
</g>
<g>
</g>
<g>
</g>
<g>
</g>
<g>
</g>
<g>
</g>
<g>
</g>
<g>
</g>
<g>
</g>
<g>
</g>
<g>
</g>
</svg>
