<svg id="james1" xmlns="http://www.w3.org/2000/svg" viewBox="0 0 134.79 190.21"><defs><style>.cls-1{fill:#8a8a8a;}.cls-2{fill:#080808;}.cls-3{fill:#090909;}.cls-4{fill:#0a0a0a;}</style></defs><g id="cornflower"><path class="cls-1" d="M.1,46.84c-.08-.31.17-.41.36-.54L20,31.57a2.76,2.76,0,0,1,2-.67c.84.06,1.69,0,2.53,0,.3,0,.53,0,.53-.4.39-.07.41.26.51.48.38.92.61,1.9,1.06,2.8a10.36,10.36,0,0,0,2.82,3.28,1.34,1.34,0,0,0,.65.3,2.65,2.65,0,0,1,1.58,1c.18.2.39.37.26.67s-.41.32-.67.31c-1.36,0-2.73.06-4.1,0a1.47,1.47,0,0,0-.92.07c.11.28.36.29.58.32a16.49,16.49,0,0,0,4.6.14,8.52,8.52,0,0,1,2.08.09,19.12,19.12,0,0,0,2.14.2c.86,0,1.7.22,2.58.17a12.76,12.76,0,0,0,4.66-.95,31.85,31.85,0,0,0,4-2.12,14,14,0,0,0,5.48-6c.12-.25.22-.61.65-.5.26.22.58.14.88.14,3.43,0,6.87,0,10.3,0,.94,0,.95,0,.83.93a4.85,4.85,0,0,0,0,.66V84.37c0,1,0,1,1,1H86c.31-.16.42.09.58.26.33.36.45.84.76,1.21A31.94,31.94,0,0,0,90,89.45c.75.71,1.47,1.47,2.26,2.14a.65.65,0,0,1-.42,1.22c-1.8,0-3.58.45-5.38.34a4.11,4.11,0,0,0-1.47.26c-.1,0-.23.06-.25.19s.13.21.24.26a2,2,0,0,0,.63.16c1.87.08,3.7.47,5.58.48a2.25,2.25,0,0,0,.58,0,7.68,7.68,0,0,1,2.44,0,9.13,9.13,0,0,0,1.81.21.85.85,0,0,1,.54.17,1.07,1.07,0,0,0,1,.14A3.64,3.64,0,0,1,99.23,95a23.55,23.55,0,0,0,4.28-.17,2.68,2.68,0,0,0,.69-.17A22.78,22.78,0,0,0,109,92.28a5.84,5.84,0,0,0,1.88-2.45,1,1,0,0,1,.54-.61,2,2,0,0,0,1.19-1.6,2.74,2.74,0,0,1,.54-1.37,2.93,2.93,0,0,0,.38-1c.11-.3.22-.65.68-.43-.15.51.17.51.53.5h18.73c.94,0,1.08.13,1.08,1.09,0,2.83,0,5.66,0,8.48.13,7,0,14,.13,21,.07,4,.06,8,.09,11.94a1.69,1.69,0,0,1-1,1.72,16.28,16.28,0,0,0-2.35,1.75l-17.12,13.26c-.27.21-.62.35-.66.76,0,.06-.06.14-.11.15-1.61.54-2.73,1.82-4,2.81q-21,16.21-42,32.49L56.94,189c-.28.22-.58.4-.62.86s-.47.3-.77.29c.61-1.61.33-3.3.33-4.95,0-12.77,0-25.54,0-38.31,0-1.65,0-1.7-1.66-1.7H14.36c-.41,0-.83,0-1.24,0s-.6,0-.69-.37.15-.48.35-.65c1-.78,2-1.53,2.92-2.3l21.24-16.58q9.89-7.7,19.75-15.42,4.86-3.78,9.7-7.6c.18-.14.51-.26.39-.53s-.43-.14-.66-.14H45.18c-1.2,0-1.27-.1-1.29-1.32,0-.44,0-.87,0-1.31V48.85c0-1.63-.07-1.69-1.7-1.69H1.87c-.39,0-.78,0-1.17,0C.46,47.12.21,47.12.1,46.84Z"/><path class="cls-2" d="M.1,46.84q21.66,0,43.33,0c.77,0,.76.37.76.92q0,26,0,52v.65c0,.87,0,.87.85.87h22.9l.08.16-55.5,43.33a1.23,1.23,0,0,0,.75.11H55.15c1.17,0,1.11-.21,1.11,1.09,0,7,0,14,0,21v21.61a6.77,6.77,0,0,0,0,.78.66.66,0,0,1-.7.84H12.83c-.85,0-.85,0-.85-.84q0-21.57,0-43.13c0-.61-.12-.8-.77-.79-3.46,0-6.91,0-10.37,0-.91,0-.84.15-.84-.83V47.67A1.48,1.48,0,0,1,.1,46.84Z"/><path class="cls-3" d="M114.18,84.85c-.09.09-.24.18-.25.28-.12,1-.91,1.66-1,2.67a2,2,0,0,1-1.28,1.69.74.74,0,0,0-.44.44,6.94,6.94,0,0,1-4.13,3.79c-.77.28-1.48.72-2.24,1a5.86,5.86,0,0,1-2.34.51,23,23,0,0,1-4.15,0,.64.64,0,0,0-.49.09,1.13,1.13,0,0,1-1.24,0c-.5-.37-1-.21-1.53-.32a10.79,10.79,0,0,0-2.76-.28,13.7,13.7,0,0,1-2.64,0c-1.56-.23-3.14-.27-4.7-.56-.53-.1-.79-.54-1.25-.76a8.42,8.42,0,0,1,2.8-.63c1.28.14,2.51-.23,3.77-.21a10.56,10.56,0,0,0,1.48-.13c.21,0,.5,0,.58-.18s-.19-.33-.32-.46c-.75-.73-1.54-1.43-2.27-2.19A29.93,29.93,0,0,1,87,86.92a10,10,0,0,0-1-1.57c-.22-.46-.43-.94-.68-1.39a6.91,6.91,0,0,1-.85-2.61.81.81,0,0,0-.57-.77c-.87-.31-1.71-.71-2.59-1A4.82,4.82,0,0,1,77.94,76a6.82,6.82,0,0,0-1.16-2.52A4.74,4.74,0,0,1,76,69.57c.12-.69.13-1.38.21-2.06a16.88,16.88,0,0,1,1-4.29c.5-1.3,1.13-2.55,1.66-3.84a2.26,2.26,0,0,1,1.31-1.21,13.52,13.52,0,0,0,2.23-1.53c1-.6,1.27-1.71,2-2.45.08-.07.13-.19.22-.23,1.05-.41,1.25-1.28,1.37-2.28a14.42,14.42,0,0,1,2.66-6.54,6.39,6.39,0,0,0,1.37-2c.18-.63,1-.9,1.74-.93a2.11,2.11,0,0,0,.8-.15,7.09,7.09,0,0,1,4.33-.4c1.91.39,3.73,1.1,5.65,1.41a16.81,16.81,0,0,1,2.56.38,6.14,6.14,0,0,1,4.31,4.2,26.3,26.3,0,0,0,1.26,3.62,8.43,8.43,0,0,1,.36,1.48c.17.7-.16,1.46.51,2.14a3.74,3.74,0,0,1,.55,1.55,11.62,11.62,0,0,1,.51,2.48c0,.24.09.49-.11.73a.47.47,0,0,0,0,.43c.6,1,.27,2.06.22,3.09,0,.4-.16.75.18,1.14a1.25,1.25,0,0,1,.17,1.12,1.45,1.45,0,0,0,.24,1.11c.62,1.09,1.29,2.16,1.93,3.24a6.41,6.41,0,0,1,1,2.7c.08.83-.39,1.59-.29,2.42-1,.9-.2,1.87-.09,2.8a8.93,8.93,0,0,1-.08,3.22,7.37,7.37,0,0,1-.81,2,2,2,0,0,0-.4,1.27C114.54,84.46,114.33,84.66,114.18,84.85Z"/><path class="cls-2" d="M52.94,30.77a20.2,20.2,0,0,1-2.64,4.08,22.5,22.5,0,0,1-3.83,3A16.62,16.62,0,0,1,42,40.11a11.17,11.17,0,0,1-3.7.53c-2.08,0-4.13-.37-6.2-.5a4.81,4.81,0,0,0-1.42.06,7.54,7.54,0,0,1-3-.11,9.3,9.3,0,0,1-1.48-.16c-.33-.1-.71-.16-.67-.57s.47-.48.82-.44c1.58.19,3.16-.05,4.74.07a.83.83,0,0,0,.67-.11,2.44,2.44,0,0,0-1.31-1.07,5.54,5.54,0,0,1-3-2.28,8.63,8.63,0,0,1-1.84-3.69A11.9,11.9,0,0,0,25,30.51c-.41-2.15-.57-4.27.53-6.31C26.42,22.6,27.2,21,28,19.31A6.82,6.82,0,0,1,28.92,18c.61-.77.83-1.78,1.55-2.48,1.41-1.37,2.65-3,4.64-3.58a23.54,23.54,0,0,1,5.41-1,16.11,16.11,0,0,1,3.61.19A11.6,11.6,0,0,1,50.94,15a14.63,14.63,0,0,1,2.81,4.12,11.42,11.42,0,0,1,1,5.52A12.56,12.56,0,0,1,53.27,30,6.76,6.76,0,0,0,52.94,30.77Z"/><path class="cls-4" d="M41.22,9.21a.75.75,0,0,1,.32-.82,3.19,3.19,0,0,0,1.18-1.95,1.16,1.16,0,0,1,.4-.64c1-.74,1.55-1.91,2.45-2.73A18.73,18.73,0,0,1,48.29.6,2.31,2.31,0,0,1,50.14.22c1,.26,1.12.79.49,1.57a1.57,1.57,0,0,1-.39.42c-1.53.85-2.06,2.65-3.47,3.6a2.33,2.33,0,0,0-.46.63,20.73,20.73,0,0,1-3.6,3.21c-.43.38-.93,0-1.38,0C41.11,9.63,41.28,9.3,41.22,9.21Z"/><path class="cls-2" d="M40.8,0a.4.4,0,0,1,.25.59,12.62,12.62,0,0,0-.59,4.31,26.93,26.93,0,0,0-.19,3.36,8.58,8.58,0,0,1,.12,1.52c0,.26,0,.43-.3.47s-.28.24-.4.08a.6.6,0,0,1,0-.63,1,1,0,0,0,0-1.31,2,2,0,0,1,0-1.47A22.3,22.3,0,0,0,40,1.76,2.14,2.14,0,0,1,40.6.13,2.26,2.26,0,0,1,40.8,0Z"/></g></svg>