<svg class="star" viewBox="0 0 8419 6865" fill="none" xmlns="http://www.w3.org/2000/svg">
<path d="M4209.5 0L4706.97 639.704L5407.57 139.04L5661.61 865.96L6508.58 544.897L6498.6 1300.14L7423.33 1184.69L7150.15 1907.07L8077.71 2006.59L7563.46 2637.59L8418.72 2944L7705.06 3432.5L8418.72 3921L7563.46 4227.41L8077.71 4858.41L7150.15 4957.93L7423.33 5680.31L6498.6 5564.86L6508.58 6320.1L5661.61 5999.04L5407.57 6725.96L4706.97 6225.3L4209.5 6865L3712.03 6225.3L3011.43 6725.96L2757.39 5999.04L1910.42 6320.1L1920.4 5564.86L995.675 5680.31L1268.85 4957.93L341.29 4858.41L855.54 4227.41L0.28418 3921L713.945 3432.5L0.28418 2944L855.54 2637.59L341.29 2006.59L1268.85 1907.07L995.675 1184.69L1920.4 1300.14L1910.42 544.897L2757.39 865.96L3011.43 139.04L3712.03 639.704L4209.5 0Z" fill="#DADE2B"/>
</svg>
