<svg xmlns="http://www.w3.org/2000/svg" viewBox="0 0 177.56 30.03"><g id="Layer_2" data-name="Layer 2"><g id="Layer_1-2" data-name="Layer 1"><path d="M123.12,23.16a2.24,2.24,0,0,1-.36-.13,1.24,1.24,0,0,0-1.76.42.52.52,0,0,1-.21.23.4.4,0,0,1-.32,0,.3.3,0,0,1-.09-.29,2.26,2.26,0,0,1,.35-.52c.22-.24.47-.46.67-.71.08-.09.12-.33.07-.36a.49.49,0,0,0-.41-.09,11.86,11.86,0,0,0-1.12.72,4.6,4.6,0,0,1-.74.46,2.15,2.15,0,0,1,.77-1.28,4.49,4.49,0,0,0,.55-.51c.07-.08,0-.25,0-.42l-2.62,1c-.18-.21,0-.45.21-.64.42-.39.88-.74,1.32-1.12a.67.67,0,0,0,.08-.23,6.93,6.93,0,0,0-1.33.39c-.16.08-.27.32-.52.39s-.38,0-.44-.17a.48.48,0,0,1,.09-.44,11.71,11.71,0,0,1,1-.76c.86-.68,1.71-1.36,2.58-2a3.45,3.45,0,0,1,.9-.5,13.17,13.17,0,0,0,3.11-1.79,12.44,12.44,0,0,1,1.59-.8c.66-.33.65-.37.53-1.07a10,10,0,0,1,0-1.22c0-.36-.08-.73-.1-1.09A8.93,8.93,0,0,1,126.82,9c.09-.76.72-1,1.37-1.26l.68-.2a3.84,3.84,0,0,0-.33-.28,1.39,1.39,0,0,1-.08-2,9.76,9.76,0,0,1,1.83-1,1.63,1.63,0,0,1,1.6.65.74.74,0,0,1,.08.34c0,.31,0,.62,0,.94s-.1.61-.15,1l.87-.13a.49.49,0,0,1,.63.4c0,.59.45,1,.67,1.44a4.7,4.7,0,0,0,.37.54A10.19,10.19,0,0,0,137,7.66a13.23,13.23,0,0,1,1.85-1.28c.74-.45,1.5-.84,2.28-1.22a1.05,1.05,0,0,1,.68,0,.37.37,0,0,1,.26.58c-.24.4-.25.94-.72,1.2,0,0,0,.09,0,.22l.73-.53c.59-.43.71-.45,1.43-.16,0,.51-.4.76-.8,1s-.57.44-.88.68c.29.32.5.17.72,0s.62-.4.94-.57a.78.78,0,0,1,.38-.06c.41,0,.57.26.42.63a2.68,2.68,0,0,1-1.17,1.38,2.15,2.15,0,0,0-.44.46l.1.11.69-.47a1.23,1.23,0,0,1,1.2-.3c.34.13.39.39.11.61l-2,1.61a.64.64,0,0,0-.25.29,1.67,1.67,0,0,1-.88.91c-1.07.55-2.14,1.1-3.19,1.69a2.49,2.49,0,0,0-.6.61.31.31,0,0,0,0,.28,7.18,7.18,0,0,0,.46.92c.51.85,1.05,1.68,1.54,2.54a4.54,4.54,0,0,1,.36.95c.29.92.58,1.84.86,2.76a2.72,2.72,0,0,1,.12.74,13.18,13.18,0,0,0,.63,2.78,5.89,5.89,0,0,1,.17,2.37,1.81,1.81,0,0,1-.23,0l-3.38,0c-.62,0-1.24,0-1.86,0a.55.55,0,0,1-.51-.27,2.23,2.23,0,0,1-.66-1.22c0-.33,0-.66,0-1a11.1,11.1,0,0,0-.27-1.14c-.16-.58-.31-1.15-.47-1.72a11.71,11.71,0,0,1-.45-1.42,1.51,1.51,0,0,0-.53-1c-.11-.09-.35-.17-.43-.11a2.34,2.34,0,0,0-.77.69,33.31,33.31,0,0,1-2.15,3.34.79.79,0,0,0-.18.47c.06.71-.41,1.23-.66,1.82a5.87,5.87,0,0,0-.4,1.18c-.05.28-.13.36-.4.36q-2.88,0-5.76,0c-.34,0-.42-.16-.4-.44s.09-.63.09-.94a2.68,2.68,0,0,0-.13-.8,1.79,1.79,0,0,1,.11-1.23C122.72,24.39,122.92,23.78,123.12,23.16Z"/><path d="M101.59,10.45l-.35.32a.39.39,0,0,0-.12.19,1.31,1.31,0,0,1-.43.71.84.84,0,0,0-.11.21.61.61,0,0,1-.47.36c-.21,0-.31.19-.38.39a2.38,2.38,0,0,1-.18.3l-.08,0,0-.27-.81.45,0-.36H98.6c-.14.41-.49.14-.73.23s-.2.11-.3.13l-1,.1c0,.22,0,.46,0,.7,0,.76,0,1.52.09,2.29,0,.16.15.31.16.48,0,.55,0,1.11,0,1.66,0,.3,0,.6-.08.9-.07.74-.13,1.48-.2,2.22,0,.4-.1.8-.11,1.2s.06.56.07.84c0,.54,0,1.09.07,1.63,0,.37,0,.74,0,1.11s.16.67.18,1a4.3,4.3,0,0,1-.12,1.51,1,1,0,0,0,.11.58c0,.12-.28.22,0,.41-.1.1,0,.35-.29.33s-.26,0-.39,0c-.34,0-.35-.07-.41-.41a12.77,12.77,0,0,1-.09-2.47c0-.39.07-.78.1-1.17a3.54,3.54,0,0,0-.09-1.41,1.89,1.89,0,0,1,0-.57c0-.39.08-.78.08-1.18,0-.83,0-1.66,0-2.48,0-.62.07-1.24.1-1.85,0-.41,0-.83,0-1.24s0-1,0-1.47a7.09,7.09,0,0,1,0-.79c0-.58.13-1.15.21-1.72,0,0,.06-.09.1-.14l.1-.15c-.06,0-.11-.06-.16-.06a6,6,0,0,1-2.23-.6,3.34,3.34,0,0,1-1.1-1.08,2.18,2.18,0,0,0-.35-.33c-.16-.12-.33-.2-.49-.31a.52.52,0,0,1-.19-.2c-.15-.27-.28-.55-.42-.83L90.87,9a5.46,5.46,0,0,1-.22-2.69c0-.57.12-1.15.19-1.72A3.49,3.49,0,0,1,91,3.76c0-.1.24-.15.37-.19.3-.08.61-.14.92-.2l.93-.18.4-.11a2.45,2.45,0,0,1,1.11,0,8.33,8.33,0,0,0,.87,0c.18,0,.37.07.56.1l.66.06c.24,0,.48,0,.72,0s.73-.06,1.1-.09l.34,0c.11,0,.26.07.33,0,.25-.18.48,0,.71,0a2.12,2.12,0,0,1,.52.14l0,0c.34-.13.61.13.92.16a1,1,0,0,1,.72.31c.21.21.15.46.18.69a7.72,7.72,0,0,1,.07,1.73,3,3,0,0,1-.44,1.6s0,0,0,.07c.06.37-.24.63-.29,1a2.33,2.33,0,0,1,0,.37,4.89,4.89,0,0,0-.2.48,3.6,3.6,0,0,0,0,.57Z"/><path d="M107.77,13.68c-.13.18-.16.39-.38.15,0,.19,0,.28.21.31a3.09,3.09,0,0,1,.54.17c-.18.44-.49.38-.73.33a2.58,2.58,0,0,1-.25.55c-.12.15-.18.45-.46.3-.1.11-.19.22-.29.31a4.35,4.35,0,0,1-.42.33c-.22.17-.46.32-.66.5a5.56,5.56,0,0,0-.39.44c-.06.07-.15.19-.22.18s-.25,0-.35.21a1.53,1.53,0,0,1-.57.56c-.5.35-1,.67-1.54,1-.36.23-.74.45-1.1.7a4.24,4.24,0,0,0-.49.46c-.25.24-.48.49-.74.72a3,3,0,0,1-.47.27c-.11.06-.27,0-.3.22a.22.22,0,0,1-.15.11c-.47,0-.6.5-.92.73a1.38,1.38,0,0,1-.66.23c-.08,0-.21-.22-.27-.36a.35.35,0,0,1,0-.3,3.64,3.64,0,0,1,.49-.55c.19-.2.4-.38.6-.56.45-.44.89-.88,1.36-1.3s.92-.75,1.39-1.12.84-.65,1.25-1,.65-.54,1-.81a3.58,3.58,0,0,1,.39-.29L104,16c.12.09.17,0,.27-.16a1.56,1.56,0,0,1,.5-.42,8.61,8.61,0,0,0,1.45-1,2.23,2.23,0,0,1,.75-.48c.18-.05.32-.15.48-.21A1.87,1.87,0,0,1,107.77,13.68Z"/><path d="M71.47,25.2a1.54,1.54,0,0,0-.21-.31.27.27,0,0,0-.24-.06A3.75,3.75,0,0,1,69,25a12.07,12.07,0,0,0-2.25,0c-.72.1-1,.75-1.1,1.39s-.23,1.59-.35,2.41H59.41c0-.55,0-1.09,0-1.63a10.16,10.16,0,0,0,0-1.35,4.74,4.74,0,0,1,.23-2.21c.19-.54.31-1.11.54-1.62A5.08,5.08,0,0,1,61,20.79c.73-.77.75-.86-.12-1.43-.33-.22-.73-.34-1.06-.55a8.3,8.3,0,0,1-.69-.64,5.8,5.8,0,0,0-1.07-.81,3.15,3.15,0,0,1-1.1-.88,2,2,0,0,0-.26-.24c-.43-.34-.87-.67-1.29-1a1.43,1.43,0,0,1-.36-.45.6.6,0,0,1,.06-.78c.24-.24.5-.15.76-.08a.63.63,0,0,0,.35.05c-.1-.15-.21-.3-.3-.46s-.07-.44.24-.45.67,0,1.08.07c-.08-.08-.15-.14-.21-.21a7.86,7.86,0,0,1-.62-.89c-.15-.3,0-.48.32-.42a3.83,3.83,0,0,1,.8.29c.11,0,.2.13.31.17a.55.55,0,0,0,.22,0,1.25,1.25,0,0,0,0-.19,3.51,3.51,0,0,1-.26-.6c0-.14,0-.4.09-.44a1,1,0,0,1,.69-.11,3,3,0,0,1,.79.57c.07.05.1.15.17.21a1.2,1.2,0,0,0,.28.27c.32.22.65.42,1,.63.09,0,.16.16.25.19a.89.89,0,0,1,.64.69c0,.15.29.23.43.35l.65.56a3.48,3.48,0,0,0,.63.53,8.75,8.75,0,0,0,1,.35c.07,0,.12.1.17.16a1.85,1.85,0,0,0,.21.33,1.05,1.05,0,0,0,.29.17,1.28,1.28,0,0,0,.11-.31,3.38,3.38,0,0,1,1.1-2.2c.28-.27.54-.57.86-.9l-.75-.18L66,12a.51.51,0,0,1-.4-.56c0-.3.23-.42.47-.5l1.34-.49a3.55,3.55,0,0,1,1.51-.3c.54,0,1.07,0,1.61.06A.5.5,0,0,1,71,11c-.23.56-.53,1.07-1.21,1.18-.08,0-.14.1-.18.13l1,.86a.28.28,0,0,0,.17.07c.39,0,.79,0,1.18.08a1,1,0,0,1,.35.17l0,.14c-.17,0-.34.07-.51.09-.34,0-.37.1-.23.39a7.12,7.12,0,0,1,.35.74c.11.33.24.25.42.07a7.21,7.21,0,0,1,.7-.66c.74-.57,1.48-1.14,2.24-1.68s1.27-.85,1.89-1.3c.35-.25.64-.57,1-.79.15-.1.41,0,.62,0,0,.16,0,.35-.06.46a9.76,9.76,0,0,1-.71.88,3,3,0,0,1-.23.2c.38.14.6-.08.84-.23s.74-.51,1.12-.74c.13-.07.38-.13.45-.06s.09.31.1.47a1,1,0,0,1-.53.94,4.22,4.22,0,0,0-.54.65,1.22,1.22,0,0,0,.33-.06,5.33,5.33,0,0,0,.93-.61.52.52,0,0,1,.77-.05.56.56,0,0,1,.18.81c-.24.35-.53.66-.8,1l-.83,1,.09.1c.17-.11.35-.21.52-.33a7.61,7.61,0,0,1,1-.69c.17-.09.6,0,.64.08A.93.93,0,0,1,82,15a5.33,5.33,0,0,1-.87.76,2.3,2.3,0,0,0-.34.25,8.09,8.09,0,0,1-2.19,1.62,14,14,0,0,0-1.41,1.14c-.27.25-.49.55-.75.81s-.21.39,0,.57a9.41,9.41,0,0,1,.76.63,1.47,1.47,0,0,1,.23.47c.11.24.23.48.33.73a1.17,1.17,0,0,1,.12.39c0,.95,0,1.9,0,2.85,0,.57.08,1.14.1,1.7s0,.95,0,1.42-.13.51-.52.51H72.3a.36.36,0,0,1-.42-.32c-.11-.52-.33-1-.39-1.54A15.42,15.42,0,0,1,71.47,25.2Z"/><path d="M35,21.8a5.84,5.84,0,0,0-1.53,2.13,6.21,6.21,0,0,0-.63,1.83,3.53,3.53,0,0,1-.22.59c-.11.44-.21.89-.29,1.34,0,.21-.09.33-.33.33H27.42c-.24,0-.34-.11-.32-.36a15,15,0,0,1,.26-2.12,7.48,7.48,0,0,1,.69-2.08,7.8,7.8,0,0,0,.4-1.12c.25-.59.54-1.16.82-1.73a1.59,1.59,0,0,1,.13-.22c.29-.41.29-.44-.14-.65a2.93,2.93,0,0,1-1.37-1.59,6.61,6.61,0,0,1-.48-2.61,22.16,22.16,0,0,1,.33-3.46,4.22,4.22,0,0,1,.46-1c.1-.23.11-.53.26-.69A9.64,9.64,0,0,1,31.7,7.76c.39-.15.81-.25,1.2-.38.1,0,.24-.11.25-.18S33.08,7,33,6.92a2.38,2.38,0,0,1-.86-1.72.29.29,0,0,0,0-.13c-.38-.66,0-1.18.35-1.69a7.51,7.51,0,0,1,.72-1,1.83,1.83,0,0,1,1.64-.63,17.36,17.36,0,0,1,2,.5,2.43,2.43,0,0,1,1.37,2A4.38,4.38,0,0,1,38,5.33a.42.42,0,0,1-.16.23C37.22,6,37,6.67,36.44,7.1c0,0-.06.13-.09.21.49.18,1,.34,1.46.56a6.09,6.09,0,0,1,1,.61,11.66,11.66,0,0,1,1.06.79,8.82,8.82,0,0,1,.77.84c.06.07.06.19.09.28s0,.09,0,.11a2.52,2.52,0,0,1,.87,1.38,4.22,4.22,0,0,1,.24,2.51c-.05.2,0,.42-.06.62l-.24,1.29a1.57,1.57,0,0,1-.18.31l.06-.38-.1,0a7.18,7.18,0,0,0-.25,1,3.5,3.5,0,0,1-.48,1.31,11.32,11.32,0,0,1-.75,1.19c-.19.28-.08.59.26.57a1.11,1.11,0,0,1,1.1.81,22.27,22.27,0,0,1,1,2.16,8.84,8.84,0,0,1,.62,2.44,5.88,5.88,0,0,0,.48,1.41,6.18,6.18,0,0,1,.12.62l-.65.05c-.1,0-.26,0-.3,0-.17.26-.42.2-.66.2l-3.45,0c-.52,0-.68-.19-.78-.69a7,7,0,0,0-.38-1.09c-.2-.59-.36-1.19-.61-1.75-.34-.74-.75-1.44-1.15-2.15A4,4,0,0,0,35,21.8Z"/><path d="M166.66,29.78c-.64,0-.69,0-.69-.63,0-.94.08-1.88.11-2.81s0-1.9,0-2.86v0c0-.92-.07-.94-1-.92-.75,0-1.5,0-2.26,0-1.1,0-2.2,0-3.3.06a4.75,4.75,0,0,1-2.91-.74c-.16-.1-.37-.12-.54-.21a1.1,1.1,0,0,1-.38-.29,12.44,12.44,0,0,1-1-1.52,1.48,1.48,0,0,1,0-1c.15-.56.39-1.1.59-1.64a.49.49,0,0,0,0-.16c-.12-.92.55-1.29,1.22-1.48a12,12,0,0,1,2.73-.47,17.32,17.32,0,0,0,4-.73,8.76,8.76,0,0,1,1.55-.17h.14l-.12-.1a4.88,4.88,0,0,1-2.15-3,2.35,2.35,0,0,1,.17-1,9.35,9.35,0,0,1,.53-1.57c.21-.45.25-1.08.93-1.2.1,0,.19-.14.27-.22.4-.36.79-.73,1.18-1.1l.08-.13a.55.55,0,0,0-.17,0,3.26,3.26,0,0,1-2.2-.1c-.18-.08-.45,0-.68,0a2.84,2.84,0,0,1-.57-.1A8.75,8.75,0,0,1,161,5.3c-.21-.09-.3-.43-.48-.62s-.41-.52.05-.74a6.5,6.5,0,0,1,1.26-.64c1.27-.28,2.55-.48,3.84-.71.19,0,.25-.06.25-.3A6.74,6.74,0,0,1,166,.87c.07-.37.56-.61.95-.64A9.58,9.58,0,0,0,168.13,0c.29-.06.43.08.41.38s-.07.36.21.41c.08,0,.16.15.19.25s-.07.15-.13.21c-.35.33-.7.65-1,1-.15.14-.11.24.1.27.46,0,.92.09,1.37.16a18.27,18.27,0,0,1,2.09.37,7.22,7.22,0,0,1,1.54.66c.32.17.13.93-.26,1.11a5,5,0,0,1-2.08.53,5.32,5.32,0,0,0-.73.2c-.64.08-1.29.13-1.94.19l-.19,0s.07.11.12.13c.25.08.49.15.74.21s.41.08.45.4.29.46.37.7a12.13,12.13,0,0,1,.5,1.73,2.79,2.79,0,0,1-.11.89l-.15,1.4a.29.29,0,0,1,0,.16,8.68,8.68,0,0,1-.56.79,5.64,5.64,0,0,1-.56.53.76.76,0,0,0-.2.29,2.08,2.08,0,0,1-.94,1.23c-.07,0-.08.16-.12.25a.66.66,0,0,0,.25.1c.73.06,1.46.06,2.19.16,1.59.22,3.19.45,4.78.74a9.85,9.85,0,0,1,1.62.59,1.32,1.32,0,0,0,.48.09c.26,0,.73.48.88.86a3.55,3.55,0,0,1-.47,3.08,3.17,3.17,0,0,1-1.78,1.55,26.43,26.43,0,0,1-2.68.52c-.65.13-1.28.36-1.93.49-.86.17-1.73.3-2.6.42-.21,0-.29,0-.24.27a8.3,8.3,0,0,1,0,.87c.13,1.51-.32,3-.3,4.48,0,.1,0,.2,0,.3C167.44,29.78,167.44,29.78,166.66,29.78Z"/><path d="M8.32,20.56c.35-.32.7-.62,1-.95A11,11,0,0,1,11.68,18c.34-.2.69-.38,1-.56a.33.33,0,0,1,.14,0l.31,0a1,1,0,0,1-.07.29,1.75,1.75,0,0,1-.7.89c-.22.12-.35.39-.55.55a29,29,0,0,1-2.59,2.1,2.29,2.29,0,0,1-1,.48.2.2,0,0,0-.12.16c0,.5-.05,1-.08,1.58a1.32,1.32,0,0,0,.25-.13c.3-.26.57-.56.88-.81a14.34,14.34,0,0,1,2.22-1.36c.77-.39,1.49-.87,2.25-1.28a3.21,3.21,0,0,1,1-.33c.29,0,.39.14.21.38a5,5,0,0,1-.65.65c-.46.4-.91.81-1.38,1.19a15.7,15.7,0,0,1-1.32.94c-.4.26-.84.44-1.26.68A6.58,6.58,0,0,1,8.33,24a.34.34,0,0,0-.2.22,3.09,3.09,0,0,0,0,.61c0,.47,0,.93,0,1.4,0,.66,0,1.33.09,2a1.74,1.74,0,0,0,.16.45H6.64l.06-1.09a1.7,1.7,0,0,0,0-.39,12,12,0,0,1-.07-2.81c0-.24-.1-.34-.32-.36a6,6,0,0,1-1-.14,5.62,5.62,0,0,1-1-.44,17.28,17.28,0,0,1-1.51-.86,9.14,9.14,0,0,1-2-1.49c-.28-.32-.72-.5-.86-1,.24-.14.46,0,.67.1a10,10,0,0,1,2.26,1,6,6,0,0,0,.86.37,3.62,3.62,0,0,1,.32.22,4.32,4.32,0,0,0,.42.27l.86.51c.14.07.28.21.42.2s.34.12.32.36.28.47.52.68a3.09,3.09,0,0,0,.08-.61c0-.48-.06-1-.07-1.46,0-.19-.11-.23-.26-.27-.56-.12-1.12-.25-1.67-.4a1.23,1.23,0,0,1-.42-.26L2.17,19.24c-.11-.08-.24-.14-.36-.21a.69.69,0,0,1-.38-.7.43.43,0,0,0,0-.16c-.06-.19-.09-.37.1-.51a.54.54,0,0,1,.63,0c.27.18.52.38.77.57s.49.37.73.56.57.47.86.68.59.39.88.59l.84.57c.1.06.21.1.35.17a1.07,1.07,0,0,0,0-.21c0-.66.09-1.31.12-2,0-.38,0-.76,0-1.13,0-.63,0-1.26.06-1.88a.23.23,0,0,0-.2-.28c-.28-.06-.55-.14-.82-.18a2.73,2.73,0,0,1-1.57-.75A3.31,3.31,0,0,1,3.77,14a3.71,3.71,0,0,1-.44-.74C3,12.5,2.71,11.76,2.46,11a2,2,0,0,1,0-1.11,2.88,2.88,0,0,0-.06-.7,1.83,1.83,0,0,1,0-.4c.12-.4.24-.81.38-1.2A1.21,1.21,0,0,1,3,7.21c.38-.5.77-1,1.15-1.47.09-.12.15-.26.23-.38a1.25,1.25,0,0,1,.74-.53c.17,0,.31-.21.48-.26.34-.11.69-.18,1-.26A3,3,0,0,0,7,4.17a2.28,2.28,0,0,1,2.33.21,11.63,11.63,0,0,0,1.31.69c.51.27,1,.53,1.54.81a.75.75,0,0,1,.34.51c.13.42.37.81.53,1.22a4.34,4.34,0,0,1,.19.73c0,.2,0,.42.06.63a2.58,2.58,0,0,1-.09,1.32c-.17.52-.3,1.06-.48,1.58a2.56,2.56,0,0,1-.66,1.19c-.37.32-.69.71-1.07,1a3.52,3.52,0,0,1-.89.5c-.44.18-.9.31-1.35.45-.25.08-.36.26-.37.58,0,.66-.07,1.31-.09,2,0,.45,0,.89,0,1.34s0,.85,0,1.27Zm-.5-7.42a3.08,3.08,0,0,0,2-.71,3.53,3.53,0,0,0,1.32-1.83A2.16,2.16,0,0,0,11,8.88a.53.53,0,0,1,0-.25.6.6,0,0,0-.19-.58c-.12-.14-.3-.31-.29-.44a.39.39,0,0,0-.18-.4,3,3,0,0,0-.82-.41,11.13,11.13,0,0,0-1.52-.22,3.06,3.06,0,0,0-1.76.3A4.37,4.37,0,0,0,4.49,9a1.82,1.82,0,0,0,.06,1.68,4.49,4.49,0,0,0,1,1.49,8.83,8.83,0,0,0,.81.68,1,1,0,0,0,.5.14c.13,0,.26,0,.39,0S7.63,13.1,7.82,13.14Z"/></g></g></svg>