<svg width="250" height="49" viewBox="0 0 250 49" fill="none" xmlns="http://www.w3.org/2000/svg">
<path d="M211.37 38.3193C211.152 38.2596 210.939 38.1809 210.734 38.0839C210.483 37.9148 210.202 37.8 209.906 37.7466C209.611 37.6933 209.308 37.7025 209.016 37.7738C208.725 37.8451 208.45 37.9769 208.21 38.161C207.97 38.3451 207.77 38.5777 207.621 38.8444C207.542 39.0187 207.412 39.1641 207.249 39.2608C207.16 39.3006 207.064 39.3212 206.966 39.3212C206.869 39.3212 206.773 39.3006 206.683 39.2608C206.614 39.1957 206.562 39.1127 206.534 39.0204C206.506 38.9281 206.503 38.8298 206.524 38.7357C206.687 38.394 206.895 38.0771 207.143 37.7943C207.532 37.3598 207.975 36.9614 208.328 36.5088C208.47 36.3459 208.541 35.9114 208.452 35.857C208.351 35.7766 208.233 35.7202 208.107 35.6921C207.982 35.6639 207.852 35.6646 207.727 35.6941C207.043 36.0903 206.382 36.5255 205.746 36.9977C205.337 37.317 204.898 37.5959 204.437 37.8305C204.606 36.9162 205.089 36.0941 205.799 35.5131C206.148 35.2336 206.473 34.9247 206.772 34.5897C206.896 34.4449 206.772 34.1371 206.772 33.8293L202.138 35.6398C201.82 35.2596 202.138 34.8251 202.509 34.4811C203.252 33.775 204.066 33.1413 204.844 32.4533C204.916 32.3245 204.964 32.1834 204.986 32.0369C204.18 32.1912 203.392 32.4278 202.633 32.743C202.35 32.8879 202.156 33.3224 201.714 33.4491C201.271 33.5758 201.042 33.4491 200.935 33.1413C200.896 33.0053 200.891 32.8616 200.918 32.7228C200.946 32.5839 201.007 32.4541 201.095 32.3447C201.66 31.854 202.25 31.3947 202.863 30.9687C204.384 29.7376 205.888 28.5065 207.426 27.3478C207.91 26.9662 208.446 26.6611 209.018 26.4425C210.987 25.6242 212.838 24.5338 214.519 23.2018C215.421 22.6508 216.361 22.1668 217.331 21.7534C218.498 21.1559 218.48 21.0835 218.268 19.8161C218.224 19.0806 218.224 18.3429 218.268 17.6074C218.268 16.9556 218.127 16.2857 218.091 15.6339C217.944 14.6578 217.885 13.67 217.914 12.6828C218.074 11.3069 219.188 10.8723 220.337 10.4016L221.54 10.0395C221.355 9.85945 221.16 9.6902 220.956 9.53259C220.71 9.30776 220.509 9.03427 220.368 8.72849C220.227 8.4227 220.147 8.09089 220.134 7.75289C220.121 7.41488 220.174 7.07762 220.291 6.76125C220.408 6.44489 220.586 6.15592 220.815 5.91162C221.828 5.19153 222.913 4.58457 224.052 4.10113C224.584 4.00629 225.131 4.06632 225.631 4.27438C226.132 4.48244 226.565 4.83017 226.881 5.27795C226.976 5.46864 227.024 5.67971 227.023 5.89351C227.023 6.45477 227.023 7.01602 227.023 7.59537C227.023 8.17473 226.846 8.69977 226.758 9.40586L228.296 9.17049C228.416 9.13253 228.543 9.12169 228.667 9.13872C228.792 9.15574 228.911 9.20023 229.017 9.2691C229.123 9.33797 229.213 9.42958 229.281 9.53759C229.349 9.64561 229.393 9.76745 229.411 9.89469C229.411 10.9629 230.207 11.7052 230.596 12.5018C230.791 12.8428 231.01 13.1695 231.25 13.4794C232.962 12.6623 234.537 11.5748 235.919 10.2568C236.944 9.39062 238.038 8.61534 239.191 7.93936C240.5 7.12464 241.844 6.41856 243.224 5.73057C243.614 5.59401 244.037 5.59401 244.426 5.73057C244.539 5.74402 244.646 5.78715 244.738 5.85575C244.829 5.92435 244.901 6.01607 244.948 6.12192C244.994 6.22776 245.013 6.34412 245.002 6.45959C244.991 6.57506 244.951 6.68569 244.886 6.78065C244.462 7.50485 244.444 8.48251 243.613 8.95323C243.613 8.95323 243.613 9.11618 243.613 9.35154L244.904 8.39198C245.947 7.61348 246.16 7.57727 247.433 8.10231C247.433 9.02565 246.726 9.47828 246.018 9.91279C245.311 10.3473 245.01 10.7094 244.462 11.1439C244.975 11.7233 245.346 11.4517 245.735 11.1439C246.124 10.8361 246.832 10.4197 247.398 10.1119C247.609 10.0189 247.84 9.98152 248.07 10.0033C248.795 10.0033 249.078 10.474 248.813 11.1439C248.427 12.1971 247.695 13.0803 246.743 13.6424C246.445 13.8789 246.183 14.1596 245.965 14.4752L246.142 14.6744L247.362 13.8234C247.638 13.5491 247.979 13.3543 248.352 13.2589C248.725 13.1635 249.116 13.1709 249.485 13.2803C250.086 13.5157 250.175 13.9864 249.679 14.3847L246.142 17.2996C245.946 17.4243 245.791 17.6075 245.7 17.8246C245.412 18.5616 244.853 19.1533 244.143 19.4722C242.251 20.4679 240.359 21.4637 238.501 22.5319C238.088 22.8346 237.729 23.2082 237.44 23.6363C237.401 23.7148 237.381 23.8017 237.381 23.8897C237.381 23.9778 237.401 24.0646 237.44 24.1432C237.672 24.7176 237.944 25.2743 238.254 25.8089C239.156 27.3478 240.111 28.8505 240.978 30.4075C241.252 30.9546 241.466 31.5315 241.614 32.1274C242.127 33.7931 242.64 35.4587 243.135 37.1244C243.266 37.5588 243.338 38.0097 243.348 38.4641C243.54 40.1782 243.914 41.8657 244.462 43.4973C244.846 44.8918 244.948 46.3518 244.762 47.7881C244.627 47.797 244.491 47.797 244.356 47.7881H238.378C237.281 47.7881 236.185 47.7881 235.088 47.7881C234.908 47.8002 234.729 47.7609 234.569 47.6746C234.41 47.5882 234.277 47.4583 234.186 47.2993C233.577 46.7088 233.168 45.9351 233.019 45.0905C233.019 44.4931 233.019 43.8956 233.019 43.28C232.895 42.5839 232.736 41.895 232.541 41.2161C232.258 40.166 231.993 39.134 231.71 38.1021C231.392 37.2632 231.126 36.4045 230.914 35.5312C230.843 34.8261 230.507 34.177 229.977 33.7207C229.782 33.5577 229.358 33.4129 229.216 33.5215C228.677 33.8288 228.211 34.2556 227.854 34.7708C226.705 36.8621 225.436 38.8813 224.052 40.8178C223.858 41.0583 223.746 41.3571 223.733 41.6687C223.839 42.9542 223.008 43.8956 222.566 44.9638C222.257 45.6482 222.02 46.3644 221.858 47.1002C221.77 47.6071 221.629 47.7519 221.151 47.7519C217.755 47.7519 214.359 47.7519 210.964 47.7519C210.362 47.7519 210.221 47.4623 210.256 46.9553C210.292 46.4484 210.415 45.8147 210.415 45.2535C210.411 44.7615 210.333 44.2732 210.185 43.8051C209.99 43.0627 210.059 42.2734 210.38 41.5782C210.663 40.5462 211.017 39.4418 211.37 38.3193Z" fill="black"/>
<path d="M178.844 15.5094L178.27 16.0373C178.175 16.1201 178.107 16.2291 178.073 16.3507C177.97 16.8077 177.723 17.2187 177.368 17.5219C177.292 17.6283 177.231 17.7449 177.187 17.8684C177.12 18.0251 177.013 18.1618 176.879 18.2657C176.744 18.3696 176.585 18.4372 176.417 18.4623C176.072 18.4623 175.908 18.7757 175.794 19.1056C175.707 19.2776 175.609 19.4431 175.498 19.6005H175.367V19.1551L174.039 19.8975V19.3036H173.941C173.711 19.9799 173.137 19.5345 172.744 19.683C172.35 19.8315 172.416 19.8645 172.252 19.8975L170.612 20.0624C170.612 20.4253 170.612 20.8213 170.612 21.2172C170.612 22.4709 170.612 23.7247 170.76 24.9949C170.76 25.2588 171.006 25.5063 171.022 25.7867C171.022 26.694 171.022 27.6178 171.022 28.5252C171.022 29.0201 171.022 29.5149 170.891 30.0098C170.776 31.2306 170.678 32.4513 170.563 33.6721C170.563 34.3319 170.399 34.9918 170.382 35.6517C170.366 36.3115 170.481 36.5755 170.497 37.0374C170.497 37.9282 170.497 38.8355 170.612 39.7263C170.612 40.3367 170.612 40.9471 170.612 41.5574C170.612 42.1678 170.874 42.6627 170.907 43.2071C170.989 44.0426 170.922 44.886 170.71 45.6981C170.673 46.028 170.736 46.3615 170.891 46.6549C170.891 46.8528 170.432 47.0178 170.891 47.3312C170.727 47.4962 170.891 47.9086 170.415 47.8756C169.94 47.8426 169.989 47.8756 169.776 47.8756C169.218 47.8756 169.202 47.7601 169.103 47.1993C168.923 45.849 168.874 44.4844 168.956 43.1246C168.956 42.4812 169.071 41.8379 169.12 41.1945C169.226 40.4171 169.176 39.626 168.972 38.8685C168.925 38.5569 168.925 38.2398 168.972 37.9282C168.972 37.2848 169.103 36.6415 169.103 35.9816C169.103 34.6124 169.103 33.2432 169.103 31.8905C169.103 30.8677 169.218 29.8449 169.267 28.8386C169.267 28.1622 169.267 27.4694 169.267 26.793C169.267 26.1167 169.267 25.1434 169.267 24.368C169.243 23.9339 169.243 23.4989 169.267 23.0648C169.267 22.108 169.481 21.1677 169.612 20.2274C169.612 20.2274 169.71 20.0789 169.776 19.9964L169.94 19.749C169.841 19.749 169.759 19.65 169.677 19.65C168.406 19.5614 167.164 19.2252 166.021 18.6602C165.29 18.216 164.672 17.6058 164.217 16.8786C164.046 16.6764 163.854 16.4938 163.643 16.3342C163.381 16.1362 163.102 16.0043 162.84 15.8228C162.708 15.7431 162.6 15.6291 162.528 15.4929C162.282 15.0475 162.069 14.5856 161.839 14.1237L161.265 13.1174C160.778 11.6919 160.654 10.166 160.905 8.67979C160.905 7.73949 161.101 6.78269 161.216 5.84239C161.248 5.37697 161.336 4.9172 161.479 4.47317C161.479 4.30821 161.872 4.22572 162.085 4.15974C162.577 4.02776 163.085 3.92878 163.594 3.8298L165.119 3.53287L165.775 3.3514C166.373 3.21132 166.996 3.21132 167.595 3.3514C168.07 3.3764 168.546 3.3764 169.021 3.3514C169.317 3.3514 169.628 3.46688 169.94 3.51637L171.022 3.61535C171.415 3.61535 171.809 3.61535 172.203 3.61535C172.596 3.61535 173.4 3.51637 174.006 3.46688H174.564C174.744 3.46688 174.99 3.58236 175.105 3.46688C175.515 3.16994 175.892 3.46688 176.269 3.46688C176.562 3.50709 176.849 3.5847 177.122 3.69783V3.69783C177.679 3.48338 178.122 3.91229 178.63 3.96178C178.851 3.96263 179.07 4.00836 179.273 4.09624C179.476 4.18412 179.659 4.31233 179.811 4.47317C180.155 4.8196 180.057 5.23201 180.106 5.61143C180.251 6.55539 180.289 7.51272 180.221 8.46534C180.232 9.3959 179.982 10.3107 179.5 11.1048C179.5 11.1048 179.5 11.1048 179.5 11.2203C179.598 11.8306 179.106 12.2595 179.024 12.8699C179.04 13.0731 179.04 13.2772 179.024 13.4803C178.901 13.7382 178.791 14.0025 178.696 14.2721C178.671 14.5851 178.671 14.8995 178.696 15.2124L178.844 15.5094Z" fill="black"/>
<path d="M190.713 18.2755C190.483 18.6013 190.43 18.9815 190.041 18.547C190.041 18.891 190.041 19.054 190.413 19.1083C190.739 19.1807 191.059 19.2838 191.368 19.4161C191.049 20.2127 190.501 20.104 190.077 20.0135C189.968 20.362 189.819 20.6962 189.634 21.0093C189.422 21.2809 189.316 21.824 188.821 21.5524C188.644 21.7516 188.485 21.9507 188.308 22.1137C188.072 22.3282 187.824 22.5277 187.565 22.7111C187.176 23.0189 186.751 23.2905 186.398 23.6164C186.154 23.8693 185.924 24.1352 185.708 24.413C185.602 24.5397 185.443 24.757 185.319 24.7389C185.195 24.7208 184.877 24.7389 184.7 25.1191C184.457 25.5425 184.11 25.8924 183.692 26.133C182.807 26.7666 181.923 27.346 180.968 27.9434C180.331 28.3599 179.659 28.7582 179.023 29.2108C178.713 29.4645 178.423 29.743 178.156 30.0436C177.714 30.4781 177.307 30.9307 176.847 31.3472C176.585 31.5354 176.307 31.699 176.016 31.836C175.821 31.9446 175.538 31.836 175.485 32.2343C175.458 32.2853 175.42 32.3296 175.374 32.364C175.328 32.3984 175.276 32.4221 175.22 32.4334C174.389 32.4334 174.159 33.3387 173.593 33.7551C173.245 33.9941 172.843 34.1375 172.425 34.1715C172.284 34.1715 172.054 33.7732 171.948 33.5197C171.909 33.4349 171.888 33.3421 171.888 33.2482C171.888 33.1542 171.909 33.0615 171.948 32.9766C172.203 32.6155 172.494 32.2819 172.815 31.9808C173.151 31.6187 173.522 31.2928 173.876 30.967C174.672 30.1703 175.45 29.3737 176.281 28.6133C177.112 27.8529 177.908 27.2555 178.74 26.5856C179.571 25.9157 180.225 25.4088 180.95 24.7751C181.675 24.1414 182.1 23.7974 182.719 23.3086C182.937 23.1178 183.167 22.9424 183.409 22.7836L184.045 22.4758C184.258 22.6387 184.346 22.4758 184.523 22.1861C184.762 21.8716 185.063 21.6125 185.407 21.4257C186.32 20.9135 187.18 20.3069 187.972 19.6152C188.352 19.2372 188.804 18.9416 189.298 18.7462C189.617 18.6557 189.864 18.4746 190.147 18.366C190.333 18.3191 190.522 18.2888 190.713 18.2755V18.2755Z" fill="black"/>
<path d="M126.511 41.0445C126.41 40.8426 126.286 40.6541 126.14 40.4832C126.083 40.4318 126.014 40.3951 125.941 40.3762C125.867 40.3573 125.79 40.3568 125.716 40.3746C124.575 40.811 123.339 40.9175 122.143 40.6824C120.819 40.5555 119.487 40.5555 118.163 40.6824C116.89 40.8634 116.395 42.0402 116.218 43.1989C116.041 44.3577 115.811 46.0776 115.599 47.5622H105.182C105.182 46.5664 105.182 45.5888 105.182 44.6111C105.234 43.7973 105.234 42.9808 105.182 42.167C105.006 40.8191 105.145 39.4477 105.588 38.1658C105.924 37.1881 106.137 36.1562 106.543 35.2328C106.923 34.4412 107.411 33.7095 107.994 33.0602C109.285 31.6662 109.32 31.5032 107.781 30.4712C107.198 30.0729 106.49 29.8557 105.907 29.4755C105.479 29.1132 105.071 28.7263 104.686 28.3168C104.113 27.7546 103.478 27.2625 102.794 26.8503C102.036 26.4763 101.371 25.9316 100.848 25.257C100.708 25.0986 100.554 24.9532 100.388 24.8225C99.628 24.207 98.8498 23.6095 98.1069 23.012C97.8429 22.7875 97.6262 22.5103 97.4702 22.1973C97.32 21.9879 97.2481 21.7302 97.2675 21.4711C97.287 21.212 97.3966 20.9686 97.5763 20.7851C98.0008 20.3506 98.4607 20.5136 98.9205 20.6403C99.1142 20.7303 99.329 20.7617 99.5395 20.7308C99.3627 20.4592 99.1681 20.1877 99.0089 19.898C98.8498 19.6083 98.8851 19.1014 99.4334 19.0833C99.9817 19.0652 100.618 19.0833 101.344 19.21C101.202 19.0652 101.078 18.9565 100.972 18.8298C100.571 18.3192 100.204 17.7808 99.8756 17.2185C99.6103 16.6753 99.8756 16.3494 100.442 16.4581C100.931 16.5787 101.405 16.7548 101.856 16.9831C102.051 16.9831 102.21 17.2185 102.405 17.2909C102.533 17.3177 102.665 17.3177 102.794 17.2909C102.802 17.1764 102.802 17.0614 102.794 16.9469C102.608 16.6002 102.454 16.2366 102.334 15.8606C102.334 15.6071 102.334 15.1364 102.493 15.064C102.863 14.8496 103.297 14.7789 103.714 14.8648C104.231 15.1286 104.703 15.4772 105.111 15.8968C105.235 15.9874 105.288 16.1684 105.411 16.277C105.549 16.4665 105.717 16.6316 105.907 16.7659C106.473 17.1642 107.056 17.5263 107.675 17.9065C107.835 17.9065 107.958 18.1961 108.117 18.2505C108.401 18.3296 108.658 18.4886 108.858 18.7094C109.058 18.9302 109.194 19.204 109.249 19.4997C109.249 19.7713 109.762 19.9161 110.01 20.1334L111.16 21.1472C111.493 21.5111 111.867 21.8332 112.274 22.1068C112.85 22.3544 113.441 22.566 114.042 22.7405C114.166 22.7405 114.255 22.9215 114.343 23.0301C114.446 23.2422 114.57 23.4424 114.715 23.6276C114.868 23.7577 115.041 23.8617 115.227 23.9354C115.316 23.7576 115.381 23.569 115.422 23.3741C115.559 21.8434 116.253 20.4215 117.368 19.3911C117.863 18.9022 118.323 18.3591 118.889 17.7616L117.562 17.4357L116.837 17.1461C116.617 17.098 116.422 16.9673 116.291 16.7797C116.16 16.5921 116.102 16.3611 116.129 16.1322C116.129 15.589 116.536 15.3718 116.961 15.2269L119.331 14.3398C120.171 13.961 121.083 13.7756 122.001 13.7967C122.956 13.7967 123.894 13.7967 124.849 13.9053C125.02 13.882 125.195 13.9107 125.351 13.9879C125.507 14.0652 125.637 14.1875 125.725 14.3398C125.814 14.4921 125.857 14.6676 125.849 14.8446C125.841 15.0216 125.782 15.1923 125.68 15.3356C125.273 16.3494 124.743 17.2728 123.54 17.472C123.399 17.472 123.292 17.653 123.222 17.7073L124.99 19.2643C125.074 19.34 125.18 19.3847 125.291 19.3911C125.981 19.3911 126.688 19.3911 127.378 19.5359C127.602 19.596 127.812 19.7006 127.997 19.8437V20.0972C127.696 20.0972 127.396 20.2239 127.095 20.2601C126.494 20.2601 126.441 20.4411 126.688 20.9662C126.92 21.4003 127.126 21.8476 127.307 22.3059C127.502 22.9034 127.732 22.7586 128.05 22.4327C128.436 22.0066 128.85 21.6074 129.288 21.2378C130.597 20.2058 131.906 19.1738 133.25 18.1961C134.594 17.2185 135.496 16.6572 136.593 15.8425C137.212 15.3899 137.725 14.8105 138.361 14.4122C138.627 14.2312 139.087 14.4122 139.458 14.4122C139.458 14.7019 139.458 15.0459 139.352 15.2451C138.964 15.8005 138.544 16.3325 138.096 16.8383C137.967 16.966 137.831 17.0868 137.689 17.2004C138.361 17.4538 138.75 17.0555 139.175 16.784C139.599 16.5124 140.484 15.8606 141.156 15.4442C141.386 15.3175 141.828 15.2088 141.952 15.3356C142.076 15.4623 142.111 15.8968 142.129 16.1865C142.148 16.5322 142.07 16.8763 141.903 17.178C141.737 17.4796 141.49 17.7262 141.191 17.8884C140.835 18.2469 140.515 18.6412 140.236 19.0652C140.435 19.0566 140.631 19.0201 140.82 18.9565C141.404 18.6481 141.955 18.278 142.465 17.8522C142.544 17.749 142.645 17.6641 142.759 17.6029C142.872 17.5418 142.998 17.5058 143.126 17.4973C143.254 17.4888 143.383 17.5079 143.504 17.5534C143.624 17.5989 143.734 17.6699 143.826 17.7616C143.947 17.8317 144.051 17.9267 144.133 18.0405C144.215 18.1544 144.273 18.2845 144.303 18.4227C144.333 18.5608 144.335 18.7038 144.307 18.8425C144.28 18.9813 144.225 19.1126 144.145 19.2281C143.72 19.8618 143.207 20.423 142.73 21.0386L141.262 22.8491L141.421 23.0301C141.722 22.831 142.04 22.6499 142.341 22.4327C142.897 21.9687 143.488 21.5509 144.109 21.1834C144.41 21.0205 145.171 21.1834 145.241 21.3283C145.364 21.7432 145.326 22.1906 145.135 22.5775C144.673 23.0919 144.157 23.5533 143.597 23.9535C143.383 24.0852 143.182 24.2367 142.995 24.4061C141.875 25.6009 140.566 26.5926 139.122 27.3391C138.248 27.9712 137.415 28.6606 136.628 29.403C136.151 29.8557 135.761 30.3988 135.302 30.8695C134.842 31.3403 134.93 31.5756 135.302 31.9015C135.769 32.2574 136.218 32.6381 136.646 33.0421C136.83 33.2986 136.968 33.5868 137.053 33.8931C137.247 34.3276 137.459 34.7621 137.636 35.2147C137.747 35.4355 137.819 35.6745 137.848 35.9208C137.848 37.6408 137.848 39.3607 137.848 41.0807C137.848 42.1127 137.99 43.1446 138.025 44.1585C138.061 45.1724 138.025 45.8785 138.025 46.7294C138.025 47.5803 137.795 47.6527 137.106 47.6527H127.979C127.893 47.6681 127.804 47.6651 127.719 47.6438C127.634 47.6225 127.554 47.5834 127.484 47.529C127.415 47.4747 127.357 47.4061 127.314 47.3277C127.271 47.2493 127.245 47.1627 127.237 47.0734C127.042 46.1319 126.653 45.2629 126.547 44.2852C126.474 43.2066 126.462 42.1245 126.511 41.0445V41.0445Z" fill="black"/>
<path d="M62.0087 36.3299C60.8327 37.3887 59.9074 38.7074 59.3027 40.1862C58.7644 41.2242 58.3884 42.3422 58.1884 43.4994C58.0901 43.8666 57.9598 44.2241 57.7993 44.5676C57.6048 45.3642 57.4279 46.1789 57.2864 46.9937C57.2864 47.3739 57.1272 47.5911 56.7028 47.5911H48.6024C48.1779 47.5911 48.001 47.392 48.0364 46.9393C48.1004 45.6504 48.254 44.3677 48.4962 43.1011C48.7202 41.7913 49.1314 40.5224 49.7166 39.3353C50.0025 38.6788 50.239 38.0009 50.4241 37.3076C50.8662 36.2394 51.3791 35.2074 51.8743 34.1754C51.9404 34.0365 52.0173 33.9033 52.1043 33.7771C52.6172 33.0348 52.6172 32.9805 51.8567 32.6003C50.7294 31.9799 49.8663 30.9545 49.4336 29.7216C48.8415 28.2214 48.5527 26.6139 48.5847 24.9963C48.6187 22.8957 48.8138 20.8012 49.1683 18.732C49.3611 18.0947 49.6346 17.486 49.9819 16.9215C50.1588 16.5051 50.1764 15.9619 50.4417 15.6723C51.9893 13.6758 53.9453 12.0505 56.1722 10.9107C56.8619 10.6391 57.6048 10.4581 58.2945 10.2227C58.4714 10.2227 58.719 10.0235 58.7367 9.8968C58.7544 9.77007 58.6129 9.53471 58.4714 9.38987C58.0202 9.00768 57.6519 8.53332 57.39 7.99711C57.1281 7.4609 56.9783 6.87465 56.9504 6.27583C56.9678 6.19839 56.9678 6.11791 56.9504 6.04047C56.2783 4.84555 56.9504 3.9041 57.5694 2.98075C57.9447 2.34257 58.3706 1.73703 58.8428 1.17027C59.194 0.746341 59.6438 0.419677 60.1507 0.220354C60.6575 0.02103 61.2053 -0.0445475 61.7434 0.0296593C62.939 0.25941 64.1201 0.561691 65.2807 0.934902C65.9589 1.26852 66.5396 1.77855 66.9648 2.41399C67.39 3.04943 67.6448 3.78801 67.7037 4.55587C67.655 5.22182 67.5243 5.87879 67.3146 6.5112C67.2696 6.67907 67.1698 6.82605 67.0317 6.92761C65.9351 7.72422 65.546 8.93725 64.5555 9.71576C64.5555 9.71576 64.4494 9.95112 64.3964 10.096C65.263 10.4218 66.165 10.7115 66.9786 11.1098C67.6014 11.4189 68.1937 11.7888 68.7472 12.2142C69.3981 12.6543 70.024 13.1318 70.622 13.6445C71.1075 14.1209 71.5624 14.6289 71.9839 15.1653C72.09 15.2921 72.09 15.5093 72.143 15.6723C72.1961 15.8352 72.143 15.8352 72.143 15.8714C72.9124 16.5065 73.4537 17.3854 73.6818 18.3699C74.2724 19.805 74.4205 21.3905 74.1062 22.9142C74.0178 23.2763 74.1062 23.6746 74.0001 24.0367L73.5756 26.3722C73.4908 26.5711 73.384 26.7594 73.2573 26.9335L73.3634 26.2455H73.1865C72.997 26.8374 72.8492 27.4424 72.7444 28.056C72.6198 28.8969 72.331 29.7035 71.8954 30.4277C71.4973 31.1733 71.0543 31.8929 70.5689 32.5822C70.2329 33.0891 70.4275 33.6504 71.0288 33.6142C71.4664 33.6016 71.8955 33.7391 72.248 34.0048C72.6005 34.2705 72.8562 34.6492 72.9743 35.0807C73.6315 36.351 74.2219 37.6564 74.743 38.9913C75.3125 40.4027 75.6817 41.8903 75.8395 43.4089C76.0156 44.2932 76.3009 45.151 76.6885 45.9617C76.7779 46.3319 76.8487 46.7065 76.9007 47.0842L75.7511 47.1747C75.5742 47.1747 75.2912 47.1747 75.2205 47.1747C74.9198 47.6454 74.4777 47.5368 74.0532 47.5368H67.9514C67.0317 47.5368 66.7487 47.1928 66.5718 46.2876C66.4012 45.6119 66.1764 44.9519 65.8997 44.3141C65.546 43.2459 65.263 42.1597 64.8208 41.1458C64.2195 39.806 63.4944 38.5387 62.7869 37.2532C62.5533 36.9236 62.293 36.6147 62.0087 36.3299Z" fill="black"/>
<path d="M14.8213 33.329C15.4403 32.7497 16.0593 32.2065 16.5899 31.6091C17.8516 30.4558 19.2547 29.476 20.7639 28.6942C21.3653 28.3321 21.9843 28.0062 22.5326 27.6803C22.6142 27.6622 22.6986 27.6622 22.7802 27.6803H23.3285C23.3131 27.8607 23.2713 28.0377 23.2047 28.2054C22.9778 28.8681 22.5423 29.4349 21.9666 29.8167C21.5775 30.034 21.3476 30.5228 20.9938 30.8125C19.5394 32.1687 18.01 33.4381 16.413 34.6145C15.902 35.0481 15.2946 35.3466 14.6444 35.4835C14.5873 35.5085 14.5376 35.5484 14.5004 35.5992C14.4631 35.6501 14.4396 35.7101 14.4322 35.7732C14.4322 36.6784 14.3437 37.5837 14.2907 38.6337C14.4458 38.5717 14.5941 38.4928 14.7328 38.3984C15.2634 37.9277 15.741 37.3845 16.2892 36.9319C17.5224 35.991 18.8366 35.1668 20.2156 34.4696C21.5775 33.7635 22.8509 32.8945 24.1951 32.1522C24.7485 31.8548 25.3461 31.6529 25.9637 31.5548C26.4767 31.5548 26.6535 31.8082 26.3352 32.2427C25.9881 32.6703 25.6032 33.0643 25.1855 33.4196C24.372 34.1437 23.5761 34.886 22.7448 35.574C21.9957 36.1821 21.2165 36.7501 20.4102 37.2759C19.7027 37.7466 18.9245 38.0725 18.1817 38.507C17.1255 39.0274 15.9985 39.3814 14.839 39.5571C14.7544 39.5917 14.6786 39.6456 14.6173 39.7146C14.556 39.7836 14.5109 39.8659 14.4852 39.9554C14.4496 40.3226 14.4496 40.6926 14.4852 41.0598C14.4852 41.9107 14.4852 42.7435 14.4852 43.5945C14.4852 44.7894 14.4852 46.0024 14.6444 47.2154C14.7017 47.499 14.7969 47.7732 14.9274 48.0302H11.8499L11.9561 46.0567C11.9825 45.8222 11.9825 45.5852 11.9561 45.3506C11.7202 43.6656 11.6787 41.9581 11.8323 40.2632C11.8323 39.8287 11.6554 39.6476 11.2663 39.6114C10.6708 39.5779 10.0792 39.4932 9.49764 39.3579C8.88421 39.1518 8.29187 38.885 7.72899 38.5613C6.81382 38.0885 5.92248 37.5688 5.05833 37.0043C3.76436 36.2748 2.57419 35.3671 1.52104 34.3067C1.02582 33.7273 0.247611 33.4015 0 32.4962C0.424475 32.2427 0.813578 32.4962 1.18499 32.6773C2.58538 33.1092 3.92801 33.7174 5.18214 34.4877C5.67133 34.7512 6.17989 34.9752 6.70317 35.1576C6.89866 35.2799 7.08758 35.4129 7.26914 35.5559C7.50734 35.7334 7.75536 35.8966 8.01197 36.0448L9.53301 36.9681C9.78062 37.0948 10.0282 37.3483 10.2758 37.3302C10.5235 37.3121 10.8772 37.5475 10.8418 37.982C10.8064 38.4165 11.337 38.8329 11.7615 39.2131C11.8444 38.8507 11.8918 38.4807 11.903 38.1087C11.903 37.2397 11.7969 36.2982 11.7792 35.4654C11.7792 35.1214 11.5846 35.049 11.3193 34.9766C10.3289 34.7593 9.33846 34.5239 8.3657 34.2524C8.08954 34.1485 7.83684 33.9884 7.62287 33.7817L3.94408 30.9392C3.74953 30.7944 3.51961 30.6857 3.30737 30.559C3.08112 30.4448 2.89501 30.2616 2.77465 30.0346C2.6543 29.8077 2.60561 29.5481 2.63528 29.2917C2.65299 29.1959 2.65299 29.0977 2.63528 29.002C2.52917 28.658 2.47611 28.3321 2.81215 28.0786C2.97451 27.9593 3.16937 27.8951 3.36927 27.8951C3.56917 27.8951 3.76403 27.9593 3.9264 28.0786C4.40393 28.4045 4.84609 28.7666 5.28826 29.1106C5.73042 29.4546 6.15489 29.7805 6.57937 30.1245C7.00384 30.4685 7.5875 30.9754 8.10041 31.3556C8.61331 31.7358 9.14391 32.0617 9.65682 32.4238L11.1425 33.4558C11.3193 33.5644 11.5139 33.6368 11.7615 33.7635C11.7737 33.6371 11.7737 33.5098 11.7615 33.3833C11.7615 32.1884 11.9207 31.0116 11.9737 29.7624C11.9737 29.0744 11.9737 28.3864 11.9737 27.7165C11.9737 26.5759 11.9737 25.4353 12.0799 24.3128C12.0927 24.2554 12.0935 24.1959 12.0822 24.1382C12.0709 24.0805 12.0478 24.0259 12.0143 23.9779C11.9809 23.93 11.9379 23.8899 11.8883 23.8603C11.8386 23.8306 11.7833 23.8121 11.7261 23.8059C11.2309 23.6973 10.7534 23.5524 10.2758 23.48C9.23035 23.3495 8.25521 22.8727 7.49906 22.1221C7.23954 21.9199 6.99698 21.6958 6.77392 21.4523C6.46461 21.0381 6.20345 20.5885 5.99571 20.1125C5.41206 18.7365 4.89915 17.3968 4.45699 16.0208C4.27176 15.3643 4.27176 14.6676 4.45699 14.0112C4.47228 13.5859 4.43664 13.1603 4.35087 12.7438C4.32502 12.5031 4.32502 12.2603 4.35087 12.0196C4.56311 11.2954 4.77535 10.5531 5.02296 9.84705C5.11059 9.59535 5.24246 9.36218 5.41206 9.15906C6.08415 8.25382 6.77392 7.34858 7.44601 6.49765C7.60518 6.28039 7.7113 6.02693 7.85279 5.80967C8.15575 5.33281 8.62302 4.99022 9.16159 4.85011C9.46226 4.85011 9.70987 4.46991 10.0105 4.37938C10.6119 4.18023 11.2309 4.0535 11.7792 3.90866C12.0206 3.84135 12.257 3.75665 12.4867 3.65519C13.143 3.33159 13.8728 3.19606 14.5984 3.263C15.324 3.32995 16.0183 3.59687 16.6076 4.03539C17.3532 4.50176 18.1271 4.91901 18.9245 5.28463C19.8265 5.77346 20.6932 6.24418 21.6482 6.75112C21.8063 6.853 21.9416 6.98792 22.0453 7.14704C22.1489 7.30616 22.2185 7.48589 22.2496 7.67447C22.4795 8.43487 22.904 9.14096 23.187 9.88326C23.3362 10.313 23.4487 10.7552 23.523 11.2049C23.523 11.567 23.523 11.9653 23.6291 12.3455C23.7799 13.1428 23.725 13.9664 23.47 14.7354C23.1693 15.6768 22.9394 16.6545 22.621 17.5959C22.4289 18.4087 22.0255 19.1532 21.4537 19.7504C20.7993 20.3298 20.2333 21.0358 19.5612 21.5609C19.0823 21.9393 18.552 22.2443 17.9871 22.4661C17.2089 22.792 16.3954 23.0274 15.5995 23.2808C15.1573 23.4257 14.9628 23.7516 14.9451 24.3309C14.9451 25.5258 14.8213 26.7027 14.7859 27.9519C14.7859 28.7666 14.7859 29.5632 14.7859 30.3779C14.7859 31.1927 14.7859 31.9169 14.7859 32.6773L14.8213 33.329ZM13.9369 19.8952C15.2276 19.9093 16.4811 19.4537 17.4742 18.6098C18.5856 17.7966 19.4057 16.6327 19.8089 15.2966C19.9789 14.788 20.0446 14.249 20.002 13.7132C19.9594 13.1774 19.8094 12.6563 19.5612 12.1826C19.526 12.0339 19.526 11.8787 19.5612 11.73C19.6021 11.5402 19.5925 11.3426 19.5334 11.1579C19.4743 10.9732 19.3679 10.8081 19.2252 10.6799C19.013 10.4264 18.6946 10.1186 18.7123 9.88326C18.7363 9.74379 18.7188 9.60015 18.662 9.471C18.6052 9.34186 18.5118 9.23317 18.3939 9.15906C17.9505 8.83703 17.4614 8.58668 16.9436 8.41676C16.0576 8.22079 15.1593 8.0877 14.2553 8.01846C13.188 7.87873 12.1043 8.06783 11.1425 8.5616C9.73428 9.46687 8.64885 10.8129 8.04735 12.3998C7.82485 12.8782 7.71832 13.4044 7.73679 13.9339C7.75526 14.4634 7.8982 14.9805 8.15346 15.4414C8.55968 16.4533 9.16125 17.3708 9.92211 18.1391C10.3752 18.5784 10.8536 18.9895 11.3547 19.3702C11.6225 19.5329 11.9276 19.6204 12.239 19.6237C12.469 19.6237 12.6989 19.6237 12.9288 19.6237C13.1587 19.6237 13.6009 19.8228 13.9369 19.8952V19.8952Z" fill="black"/>
</svg>
