<svg width="49" height="34" viewBox="0 0 49 34" fill="none" xmlns="http://www.w3.org/2000/svg">
<path d="M29.247 27.2494C29.146 27.0476 29.0213 26.8591 28.8756 26.6882C28.8184 26.6368 28.7501 26.6001 28.6762 26.5812C28.6024 26.5623 28.5252 26.5617 28.4511 26.5795C27.3104 27.0159 26.0744 27.1224 24.8785 26.8873C23.5549 26.7605 22.2226 26.7605 20.899 26.8873C19.6256 27.0684 19.1304 28.2452 18.9535 29.4039C18.7766 30.5626 18.5467 32.2826 18.3345 33.7672H7.91712C7.91712 32.7714 7.91712 31.7937 7.91712 30.8161C7.97006 30.0023 7.97006 29.1857 7.91712 28.3719C7.74112 27.024 7.88054 25.6526 8.32391 24.3708C8.65996 23.3931 8.87219 22.3611 9.27898 21.4378C9.65819 20.6462 10.1466 19.9145 10.7293 19.2652C12.0204 17.8711 12.0558 17.7082 10.517 16.6762C9.93338 16.2779 9.22592 16.0606 8.64227 15.6804C8.2144 15.3181 7.80696 14.9313 7.4219 14.5217C6.84864 13.9596 6.21358 13.4674 5.52945 13.0552C4.77177 12.6813 4.10663 12.1366 3.58393 11.462C3.44349 11.3035 3.28961 11.1581 3.12409 11.0275C2.36357 10.4119 1.58536 9.81445 0.842531 9.21699C0.578482 8.99246 0.361844 8.71526 0.205816 8.40227C0.0555707 8.19281 -0.016343 7.93515 0.0031272 7.67604C0.0225975 7.41694 0.132164 7.17357 0.311938 6.99009C0.736413 6.55558 1.19626 6.71852 1.65611 6.84526C1.84978 6.9353 2.06458 6.96671 2.27514 6.93578C2.09827 6.66421 1.90372 6.39263 1.74454 6.10296C1.58536 5.81328 1.62074 5.30634 2.16902 5.28824C2.7173 5.27013 3.35401 5.28824 4.07916 5.41497C3.93767 5.27013 3.81386 5.1615 3.70774 5.03477C3.30641 4.52415 2.94002 3.98576 2.61118 3.42344C2.34588 2.88029 2.61118 2.5544 3.17715 2.66303C3.66637 2.7837 4.14094 2.9598 4.59206 3.18807C4.78661 3.18807 4.9458 3.42344 5.14035 3.49586C5.26872 3.52268 5.40107 3.52268 5.52945 3.49586C5.53798 3.38136 5.53798 3.26636 5.52945 3.15187C5.34348 2.8052 5.18953 2.44153 5.0696 2.06557C5.0696 1.81211 5.0696 1.34138 5.22878 1.26896C5.59894 1.05453 6.0322 0.983823 6.44915 1.06981C6.96671 1.33358 7.43867 1.68216 7.84638 2.10178C7.97018 2.19231 8.02324 2.37336 8.14705 2.48199C8.28506 2.67141 8.45232 2.83653 8.64227 2.97082C9.20824 3.36912 9.79189 3.73122 10.4109 4.11142C10.5701 4.11142 10.6939 4.4011 10.8531 4.45541C11.1369 4.53455 11.3935 4.69354 11.5935 4.91435C11.7936 5.13516 11.9292 5.40894 11.985 5.70465C11.985 5.97622 12.4979 6.12106 12.7455 6.33832L13.8952 7.35219C14.2282 7.71605 14.6022 8.03815 15.0094 8.31175C15.5859 8.55935 16.1765 8.77096 16.778 8.94542C16.9019 8.94542 16.9903 9.12647 17.0787 9.2351C17.1815 9.44713 17.3061 9.6474 17.4501 9.83256C17.6039 9.96268 17.777 10.0666 17.963 10.1403C18.0512 9.9626 18.1166 9.77396 18.1576 9.57909C18.2944 8.0484 18.989 6.62647 20.1031 5.59602C20.5983 5.10719 21.0582 4.56404 21.6242 3.96658L20.2977 3.6407L19.5725 3.35102C19.3522 3.30295 19.1575 3.17226 19.0265 2.98464C18.8956 2.79702 18.838 2.56605 18.8651 2.33715C18.8651 1.794 19.2718 1.57674 19.6963 1.4319L22.0663 0.544765C22.907 0.165923 23.8187 -0.0194854 24.737 0.00161937C25.692 0.00161937 26.6294 0.00162013 27.5845 0.110249C27.7561 0.086921 27.9306 0.115659 28.0864 0.192899C28.2422 0.270139 28.3724 0.392484 28.4609 0.544769C28.5494 0.697053 28.5923 0.872579 28.5843 1.04959C28.5763 1.22659 28.5177 1.3973 28.4158 1.54053C28.009 2.5544 27.4784 3.47775 26.2757 3.67691C26.1342 3.67691 26.0281 3.85795 25.9573 3.91227L27.726 5.46929C27.8094 5.54497 27.9154 5.58962 28.0267 5.59602C28.7164 5.59602 29.4239 5.59602 30.1137 5.74086C30.3377 5.80097 30.548 5.90555 30.7327 6.04864V6.30211C30.432 6.30211 30.1314 6.42884 29.8307 6.46505C29.2293 6.46505 29.1763 6.6461 29.4239 7.17114C29.6552 7.60521 29.8618 8.05253 30.0429 8.5109C30.2375 9.10836 30.4674 8.96352 30.7857 8.63764C31.172 8.21156 31.5856 7.81236 32.0238 7.44272C33.3326 6.41074 34.6414 5.37876 35.9856 4.4011C37.3297 3.42344 38.2318 2.86219 39.3283 2.04747C39.9473 1.59485 40.4602 1.01549 41.097 0.617185C41.3623 0.436136 41.8221 0.617185 42.1935 0.617185C42.1935 0.906862 42.1935 1.25085 42.0874 1.45001C41.6993 2.00548 41.28 2.53745 40.8317 3.04324C40.7021 3.17091 40.5664 3.29177 40.4249 3.40533C41.097 3.6588 41.4861 3.26049 41.9105 2.98892C42.335 2.71735 43.2193 2.06557 43.8914 1.64916C44.1214 1.52243 44.5635 1.4138 44.6873 1.54053C44.8111 1.66727 44.8465 2.10178 44.8642 2.39146C44.8833 2.7372 44.8051 3.08129 44.639 3.38293C44.4729 3.68457 44.2257 3.93111 43.9268 4.09332C43.5708 4.45189 43.2508 4.84614 42.9717 5.27013C43.1702 5.2616 43.3666 5.22505 43.5554 5.1615C44.1398 4.8531 44.6911 4.48295 45.2002 4.05711C45.2801 3.95392 45.3802 3.86902 45.4941 3.8079C45.608 3.74677 45.7332 3.71078 45.8615 3.70225C45.9899 3.69372 46.1185 3.71284 46.2392 3.75837C46.3599 3.8039 46.4699 3.87483 46.5621 3.96658C46.6822 4.03662 46.7867 4.13162 46.8688 4.24546C46.9508 4.35931 47.0087 4.48949 47.0387 4.62762C47.0687 4.76575 47.0701 4.90877 47.0429 5.04749C47.0156 5.18621 46.9603 5.31756 46.8805 5.43308C46.456 6.06675 45.9431 6.628 45.4655 7.24356L43.9975 9.05405L44.1567 9.2351C44.4574 9.03594 44.7757 8.85489 45.0764 8.63764C45.6325 8.17364 46.2239 7.75589 46.8451 7.3884C47.1457 7.22546 47.9063 7.3884 47.977 7.53324C48.1001 7.94811 48.0621 8.39558 47.8709 8.78247C47.4082 9.29684 46.8923 9.75821 46.3322 10.1584C46.1186 10.2901 45.9173 10.4416 45.7308 10.6111C44.6109 11.8058 43.3013 12.7975 41.8575 13.544C40.9835 14.1761 40.1505 14.8656 39.3637 15.608C38.8862 16.0606 38.4971 16.6038 38.0372 17.0745C37.5774 17.5452 37.6658 17.7806 38.0372 18.1065C38.5045 18.4623 38.9531 18.8431 39.3814 19.2471C39.5656 19.5035 39.7034 19.7917 39.7882 20.098C39.9827 20.5325 40.195 20.967 40.3718 21.4197C40.4824 21.6405 40.5543 21.8795 40.5841 22.1258C40.5841 23.8457 40.5841 25.5657 40.5841 27.2856C40.5841 28.3176 40.7256 29.3496 40.7609 30.3635C40.7963 31.3773 40.7609 32.0834 40.7609 32.9343C40.7609 33.7853 40.531 33.8577 39.8412 33.8577H30.715C30.6286 33.8731 30.5401 33.87 30.4549 33.8487C30.3697 33.8274 30.2898 33.7884 30.22 33.734C30.1503 33.6796 30.0923 33.6111 30.0496 33.5327C30.007 33.4542 29.9806 33.3677 29.9722 33.2783C29.7776 32.3369 29.3885 31.4679 29.2824 30.4902C29.2093 29.4116 29.1975 28.3295 29.247 27.2494Z" fill="black"/>
</svg>
